<svg xmlns="http://www.w3.org/2000/svg" width="35" height="35" viewBox="0 0 35 35">
  <g id="Icons" transform="translate(2.5 11.347)">
    <g id="Instagram_Icon" data-name="Instagram Icon" transform="translate(-1 -4.184)">
      <path id="Path_1" data-name="Path 1" d="M9.079,3H21.236a6.079,6.079,0,0,1,6.079,6.079V21.236a6.079,6.079,0,0,1-6.079,6.079H9.079A6.079,6.079,0,0,1,3,21.236V9.079A6.079,6.079,0,0,1,9.079,3Z" transform="translate(-3 -3)" fill="none" stroke="#fff" stroke-linecap="round" stroke-linejoin="round" stroke-width="3"/>
      <path id="Path_2" data-name="Path 2" d="M21.738,16.085a4.863,4.863,0,1,1-4.1-4.1,4.863,4.863,0,0,1,4.1,4.1Z" transform="translate(-4.718 -4.693)" fill="none" stroke="#fff" stroke-linecap="round" stroke-linejoin="round" stroke-width="3"/>
      <path id="Path_3" data-name="Path 3" d="M0,0H0" transform="translate(18.844 5.471) rotate(-8)" fill="none" stroke="#fff" stroke-linecap="round" stroke-linejoin="round" stroke-width="3"/>
    </g>
  </g>
</svg>