<svg xmlns="http://www.w3.org/2000/svg" width="500" height="300" viewBox="0 0 500 300">
  <g id="Logo" transform="translate(-468 -360.002)">
    <path id="Path_10" data-name="Path 10" d="M613.741,421.223l35.369,20.422,70.737,40.844,106.028-61.221-70.737-40.844L719.769,360Z" fill="#353535"/>
    <path id="Path_11" data-name="Path 11" d="M719.795,400.831l70.737,40.844,35.343-20.407L719.769,360,613.741,421.223l35.369,20.422Z" fill="#fff"/>
    <path id="Path_12" data-name="Path 12" d="M719.795,400.831l.052,81.658,70.685-40.814Z" fill="#040606"/>
    <path id="Path_13" data-name="Path 13" d="M578.4,441.629l35.369,20.422-35.343,20.407,35.369,20.422L649.161,523.3l-35.343,20.407-70.737-40.844-35.343,20.407L472.37,502.85Z" fill="#fff"/>
    <path id="Path_14" data-name="Path 14" d="M684.5,502.9,649.161,523.3,613.793,502.88l-.026-40.829Z" fill="#040606"/>
    <path id="Path_15" data-name="Path 15" d="M578.424,482.458l35.343-20.407.026,40.829Z" fill="#353535"/>
    <path id="Path_16" data-name="Path 16" d="M507.739,523.272l35.369,20.422-.026-40.829Z" fill="#353535"/>
    <path id="Path_17" data-name="Path 17" d="M578.476,564.116l35.343-20.407-70.737-40.844.026,40.829Z" fill="#040606"/>
    <path id="Path_18" data-name="Path 18" d="M896.614,462.111l.052,81.658-70.737-40.844Z" fill="#353535"/>
    <path id="Path_19" data-name="Path 19" d="M967.352,502.954l-70.685,40.814-.052-81.658Z" fill="#040606"/>
    <path id="Path_20" data-name="Path 20" d="M684.53,543.724,719.9,564.146l35.343-20.407,35.369,20.422L684.582,625.381l-35.369-20.422,35.343-20.407-35.369-20.422Z" fill="#fff"/>
    <path id="Path_21" data-name="Path 21" d="M719.873,523.317l.026,40.829L684.53,543.724Z" fill="#353535"/>
    <path id="Path_22" data-name="Path 22" d="M649.187,564.131l.026,40.829-35.369-20.422Z" fill="#353535"/>
    <path id="Path_23" data-name="Path 23" d="M790.61,564.161l.026,40.829L719.951,645.8l-35.369-20.422Z" fill="#353535"/>
    <path id="Path_24" data-name="Path 24" d="M719.873,523.317l35.369,20.422L719.9,564.146Z" fill="#040606"/>
    <path id="Path_25" data-name="Path 25" d="M649.187,564.131l.026,40.829,35.343-20.407Z" fill="#040606"/>
    <path id="Path_26" data-name="Path 26" d="M790.61,564.161l.026,40.829,35.343-20.407" fill="#040606"/>
    <path id="Path_27" data-name="Path 27" d="M861.244,441.688,755.216,502.908l106.106,61.266,35.344-20.406-70.737-40.844,70.685-40.814Z" fill="#fff"/>
  </g>
</svg>
