<svg xmlns="http://www.w3.org/2000/svg" width="35" height="35" viewBox="0 0 35 35">
  <path id="Youtube" d="M27.747,9.126A4.241,4.241,0,0,0,23.71,4.7c-3.022-.142-6.1-.2-9.253-.2h-.982c-3.142,0-6.23.055-9.253.2A4.25,4.25,0,0,0,.191,9.137c-.136,1.942-.2,3.884-.191,5.827S.054,18.848.185,20.8a4.255,4.255,0,0,0,4.032,4.446c3.175.147,6.432.213,9.744.207q4.975.016,9.744-.207A4.256,4.256,0,0,0,27.742,20.8c.131-1.948.191-3.89.185-5.837Q27.943,12.045,27.747,9.126ZM11.293,20.316V9.6L19.2,14.953Z" fill="#fff"/>
</svg>